<?xml version="1.0" encoding="UTF-8"?>
<svg xmlns="http://www.w3.org/2000/svg" width="22" height="22" viewBox="0 0 22 22" fill="none">
  <g clip-path="url(#clip0_710_1175)">
    <g clip-path="url(#clip1_710_1175)">
      <path d="M6.22754 0.80072C7.2941 1.1865 8.30554 1.66953 9.24567 2.28655C13.2061 4.8854 16.2285 8.31199 18.3022 12.575C18.4005 12.777 18.3811 12.8992 18.2212 13.058C16.4922 14.774 14.7697 16.4976 13.0526 18.2254C12.9013 18.3767 12.79 18.4005 12.5912 18.3097C10.2052 17.214 8.12076 15.6839 6.20701 13.9074C4.51154 12.3329 3.01059 10.5964 1.88676 8.56269C1.47181 7.81167 1.12926 7.02067 0.747803 6.23615C3.80159 5.61049 5.59971 3.81452 6.22646 0.80072H6.22754ZM10.5672 7.87003C10.5716 6.34962 9.36561 5.13502 7.85925 5.1415C6.35613 5.14799 5.15558 6.34638 5.1491 7.84841C5.14262 9.35478 6.33344 10.5586 7.83656 10.5661C9.36777 10.5737 10.5629 9.39368 10.5672 7.87003Z" fill="#11403B"></path>
      <path d="M20.6028 20.9767C19.5719 20.9345 18.6145 20.82 17.7024 20.4461C16.6013 19.9933 15.8492 19.1764 15.2895 18.1585C15.2516 18.0882 15.2787 17.9272 15.337 17.8689C16.1745 17.0163 17.026 16.1766 17.8635 15.324C17.9964 15.189 18.0915 15.2397 18.2136 15.3067C19.6691 16.1075 20.5466 17.3253 20.8135 18.9657C20.8978 19.4865 20.9399 20.016 20.9745 20.5444C21.0037 20.9832 20.9864 20.9842 20.6028 20.9767Z" fill="#11403B"></path>
      <path d="M14 7.00953C17.4309 6.81069 20.4707 9.75102 20.261 13.3386C19.8817 13.3202 19.5014 13.304 19.121 13.2835C18.8065 13.2662 18.4921 13.2576 18.1809 13.2165C18.0782 13.2025 17.9388 13.1214 17.8988 13.0328C16.9457 10.8975 15.6468 8.98595 14.147 7.20403C14.1027 7.15108 14.0638 7.09381 14 7.00953Z" fill="#11403B"></path>
      <path d="M7.01342 14C7.44566 14.3469 7.84656 14.6786 8.25827 14.9963C9.72789 16.1309 11.2904 17.1165 12.9892 17.8761C13.0821 17.9183 13.1923 18.0415 13.201 18.1355C13.2604 18.8325 13.296 19.5316 13.3393 20.2297C10.1266 20.5884 6.76056 17.6524 7.01342 14Z" fill="#11403B"></path>
      <path d="M4.83589 0.379118C4.80887 2.54681 2.72115 4.77069 0.35787 4.83985C0.270341 4.3579 0.162281 3.87055 0.0974448 3.37671C-0.0235827 2.45712 -0.03655 1.53536 0.0866388 0.612529C0.147153 0.157595 0.159039 0.144627 0.605328 0.0862747C1.93879 -0.0898636 3.25389 0.0127937 4.56034 0.305637C4.65435 0.327249 4.74728 0.355345 4.83589 0.379118Z" fill="#11403B"></path>
      <path d="M7.8711 6.50413C8.61671 6.50846 9.22185 7.11792 9.22077 7.86245C9.21969 8.59942 8.6005 9.21861 7.86461 9.21969C7.10819 9.21969 6.49873 8.60267 6.5063 7.843C6.51386 7.09306 7.119 6.50089 7.8711 6.50413Z" fill="#11403B"></path>
    </g>
  </g>
  <defs>
    <clipPath id="clip0_710_1175">
      <rect width="22" height="22" fill="white"></rect>
    </clipPath>
    <clipPath id="clip1_710_1175">
      <rect width="22" height="21.9881" fill="white"></rect>
    </clipPath>
  </defs>
</svg>
