<svg width="20" height="20" viewBox="0 0 20 20" fill="none" xmlns="http://www.w3.org/2000/svg">
<path d="M1.66699 7.08337H10.8337" stroke="#11403B" stroke-miterlimit="10" stroke-linecap="round" stroke-linejoin="round"/>
<path d="M5 13.75H6.66667" stroke="#11403B" stroke-miterlimit="10" stroke-linecap="round" stroke-linejoin="round"/>
<path d="M8.75 13.75H12.0833" stroke="#11403B" stroke-miterlimit="10" stroke-linecap="round" stroke-linejoin="round"/>
<path d="M18.3337 9.44164V13.4249C18.3337 16.3499 17.592 17.0833 14.6337 17.0833H5.36699C2.40866 17.0833 1.66699 16.3499 1.66699 13.4249V6.57497C1.66699 3.64997 2.40866 2.91663 5.36699 2.91663H11.067" stroke="#11403B" stroke-linecap="round" stroke-linejoin="round"/>
<path d="M14.1665 2.70837H16.7748C17.3498 2.70837 17.8165 3.23337 17.8165 3.75004C17.8165 4.32504 17.3498 4.79171 16.7748 4.79171H14.1665V2.70837Z" stroke="#11403B" stroke-miterlimit="10" stroke-linecap="round" stroke-linejoin="round"/>
<path d="M14.1665 4.79163H17.1415C17.7998 4.79163 18.3332 5.25829 18.3332 5.83329C18.3332 6.40829 17.7998 6.87496 17.1415 6.87496H14.1665V4.79163Z" stroke="#11403B" stroke-miterlimit="10" stroke-linecap="round" stroke-linejoin="round"/>
<path d="M15.6333 6.875V7.91667" stroke="#11403B" stroke-miterlimit="10" stroke-linecap="round" stroke-linejoin="round"/>
<path d="M15.6333 1.66663V2.70829" stroke="#11403B" stroke-miterlimit="10" stroke-linecap="round" stroke-linejoin="round"/>
<path d="M15.158 2.70837H13.333" stroke="#11403B" stroke-miterlimit="10" stroke-linecap="round" stroke-linejoin="round"/>
<path d="M15.158 6.875H13.333" stroke="#11403B" stroke-miterlimit="10" stroke-linecap="round" stroke-linejoin="round"/>
</svg>
