<svg width="20" height="20" viewBox="0 0 20 20" fill="none" xmlns="http://www.w3.org/2000/svg">
<path d="M7.9165 11.4583C7.9165 12.2666 8.54152 12.9166 9.30818 12.9166H10.8748C11.5415 12.9166 12.0832 12.3499 12.0832 11.6416C12.0832 10.8833 11.7498 10.6083 11.2582 10.4333L8.74984 9.55828C8.25817 9.38328 7.92485 9.11662 7.92485 8.34995C7.92485 7.64995 8.4665 7.07495 9.13316 7.07495H10.6998C11.4665 7.07495 12.0915 7.72495 12.0915 8.53328" stroke="#11403B" stroke-linecap="round" stroke-linejoin="round"/>
<path d="M10 6.25V13.75" stroke="#11403B" stroke-linecap="round" stroke-linejoin="round"/>
<path d="M18.3337 9.99996C18.3337 14.6 14.6003 18.3333 10.0003 18.3333C5.40033 18.3333 1.66699 14.6 1.66699 9.99996C1.66699 5.39996 5.40033 1.66663 10.0003 1.66663" stroke="#11403B" stroke-linecap="round" stroke-linejoin="round"/>
<path d="M18.3333 4.99996V1.66663H15" stroke="#11403B" stroke-linecap="round" stroke-linejoin="round"/>
<path d="M14.1665 5.83329L18.3332 1.66663" stroke="#11403B" stroke-linecap="round" stroke-linejoin="round"/>
</svg>
