<svg width="20" height="20" viewBox="0 0 20 20" fill="none" xmlns="http://www.w3.org/2000/svg">
<path d="M11.9453 15.651C11.7106 15.8285 11.5497 15.9985 11.587 16.3228C11.6542 16.9109 11.6725 17.5047 11.7106 18.0969C11.7164 18.1931 11.7222 18.2902 11.7214 18.3864C11.7181 18.6634 11.5398 18.8824 11.2677 18.9172C9.55084 19.1378 8.00896 18.7298 6.68854 17.5927C5.62192 16.6745 4.99654 15.5009 4.78421 14.1141C4.69712 13.5468 4.69629 12.9737 4.8066 12.4063C4.83397 12.2653 4.78172 12.1766 4.68551 12.0829C3.31864 10.75 2.14253 9.27117 1.27912 7.55843C0.642958 6.29773 0.214153 4.97316 0.061541 3.56813C-0.0487707 2.55542 -0.0255472 1.54603 0.253135 0.553223C0.30207 0.379047 0.392476 0.295276 0.564994 0.248C1.42675 0.010788 2.30344 -0.0414649 3.18842 0.0290351C6.22158 0.268735 8.72889 1.65634 10.9675 3.61873C11.3614 3.96376 11.7247 4.34446 12.1121 4.69696C12.1817 4.76083 12.3086 4.81391 12.3965 4.79898C15.3924 4.3005 18.2439 6.28197 18.8626 9.21643C19.0061 9.8982 19.0128 10.5841 18.9224 11.2717C18.8875 11.5396 18.6644 11.7295 18.3866 11.7163C17.7255 11.6839 17.0653 11.6325 16.4051 11.596C15.9655 11.572 15.9655 11.5769 15.6619 11.9278C15.6959 11.956 15.7275 11.9891 15.7648 12.0115C17.1184 12.8426 17.8599 14.0685 18.0929 15.622C18.2041 16.3626 18.219 17.105 18.1352 17.8489C18.1195 17.9908 18.1037 18.1036 17.9121 18.1243C16.7385 18.252 15.5856 18.1799 14.4634 17.7909C13.4516 17.44 12.6943 16.7699 12.1054 15.8932C12.0557 15.8194 12.0076 15.7439 11.947 15.651H11.9453ZM5.82844 1.66049C5.34738 3.97372 3.96724 5.3522 1.62332 5.83243C1.9161 6.43458 2.17903 7.04171 2.49752 7.61815C3.36011 9.1791 4.51216 10.512 5.81351 11.7204C7.2824 13.084 8.88233 14.2584 10.7137 15.0994C10.8655 15.1691 10.9517 15.1517 11.0678 15.0347C12.3858 13.7085 13.7078 12.3864 15.0349 11.0685C15.1585 10.9457 15.1734 10.8529 15.0971 10.6978C13.5063 7.42573 11.1856 4.79566 8.14581 2.80093C7.42423 2.32733 6.64707 1.95659 5.82927 1.66049H5.82844ZM16.8621 17.1464C17.1565 17.1522 17.1698 17.1514 17.1474 16.8147C17.1209 16.4099 17.0894 16.0035 17.0238 15.6029C16.819 14.3438 16.1463 13.4091 15.0283 12.7945C14.9345 12.7431 14.8607 12.7041 14.7595 12.8078C14.1159 13.4622 13.4632 14.1058 12.8204 14.761C12.7756 14.8067 12.7549 14.9302 12.7839 14.9833C13.2135 15.7646 13.7908 16.3917 14.636 16.7392C15.336 17.027 16.0708 17.1141 16.8621 17.1464ZM13.1223 5.78349C13.1712 5.84819 13.2002 5.89297 13.2351 5.93279C14.3863 7.30049 15.3824 8.76771 16.1148 10.4066C16.1447 10.4738 16.2525 10.5368 16.3313 10.5476C16.5701 10.5791 16.8123 10.5858 17.0529 10.5991C17.3448 10.6148 17.6376 10.6273 17.9279 10.6414C18.0896 7.88688 15.7565 5.63088 13.1223 5.78349ZM5.79277 13.1196C5.59869 15.9222 8.18314 18.1757 10.6481 17.9012C10.615 17.3654 10.5876 16.8288 10.542 16.2938C10.5362 16.2216 10.4516 16.1271 10.3794 16.0947C9.07476 15.5117 7.87626 14.7561 6.74826 13.8844C6.43225 13.6405 6.12454 13.3859 5.79277 13.1196ZM4.76016 1.33785C4.69215 1.3196 4.62082 1.29803 4.54866 1.28145C3.54673 1.05668 2.5365 0.977882 1.51301 1.11308C1.17046 1.15786 1.16134 1.16782 1.11489 1.517C1.02034 2.22532 1.03029 2.93363 1.12319 3.63946C1.17295 4.01767 1.25589 4.39257 1.32308 4.76249C3.137 4.7094 4.73942 3.00248 4.76016 1.33868V1.33785Z" fill="#11403B"/>
<path d="M9.15918 7.08647C9.15586 8.25594 8.23853 9.16166 7.06325 9.15585C5.90871 9.15005 4.99553 8.22525 5.00051 7.06988C5.00548 5.917 5.92696 4.99718 7.08067 4.99221C8.2377 4.98723 9.16249 5.91949 9.15918 7.08647ZM7.09062 6.0381C6.51335 6.03478 6.04888 6.49012 6.04308 7.06574C6.03727 7.64881 6.50506 8.12324 7.08565 8.12241C7.65048 8.12241 8.12573 7.64632 8.12656 7.08067C8.12739 6.5092 7.66292 6.04058 7.09062 6.0381Z" fill="#11403B"/>
</svg>
