<svg width="20" height="20" viewBox="0 0 20 20" fill="none" xmlns="http://www.w3.org/2000/svg">
<path d="M16.6667 11.6667C17.5871 11.6667 18.3333 10.9205 18.3333 10C18.3333 9.07957 17.5871 8.33337 16.6667 8.33337C15.7462 8.33337 15 9.07957 15 10C15 10.9205 15.7462 11.6667 16.6667 11.6667Z" stroke="#11403B" stroke-linecap="round" stroke-linejoin="round"/>
<path d="M16.6667 4.99996C17.5871 4.99996 18.3333 4.25377 18.3333 3.33329C18.3333 2.41282 17.5871 1.66663 16.6667 1.66663C15.7462 1.66663 15 2.41282 15 3.33329C15 4.25377 15.7462 4.99996 16.6667 4.99996Z" stroke="#11403B" stroke-linecap="round" stroke-linejoin="round"/>
<path d="M16.6667 18.3333C17.5871 18.3333 18.3333 17.5871 18.3333 16.6667C18.3333 15.7462 17.5871 15 16.6667 15C15.7462 15 15 15.7462 15 16.6667C15 17.5871 15.7462 18.3333 16.6667 18.3333Z" stroke="#11403B" stroke-linecap="round" stroke-linejoin="round"/>
<path d="M3.33317 11.6667C4.25365 11.6667 4.99984 10.9205 4.99984 10C4.99984 9.07957 4.25365 8.33337 3.33317 8.33337C2.4127 8.33337 1.6665 9.07957 1.6665 10C1.6665 10.9205 2.4127 11.6667 3.33317 11.6667Z" stroke="#11403B" stroke-linecap="round" stroke-linejoin="round"/>
<path d="M5 10H15" stroke="#11403B" stroke-linecap="round" stroke-linejoin="round"/>
<path d="M14.9998 3.33337H11.6665C9.99984 3.33337 9.1665 4.16671 9.1665 5.83337V14.1667C9.1665 15.8334 9.99984 16.6667 11.6665 16.6667H14.9998" stroke="#11403B" stroke-linecap="round" stroke-linejoin="round"/>
</svg>
