<svg width="20" height="20" viewBox="0 0 20 20" fill="none" xmlns="http://www.w3.org/2000/svg">
<path d="M8.00016 16.6666H12.0002C15.3335 16.6666 16.6668 15.3333 16.6668 12V7.99998C16.6668 4.66665 15.3335 3.33331 12.0002 3.33331H8.00016C4.66683 3.33331 3.3335 4.66665 3.3335 7.99998V12C3.3335 15.3333 4.66683 16.6666 8.00016 16.6666Z" stroke="#11403B" stroke-linecap="round" stroke-linejoin="round"/>
<path d="M8.74967 14.1666H11.2497C13.333 14.1666 14.1663 13.3333 14.1663 11.25V8.74998C14.1663 6.66665 13.333 5.83331 11.2497 5.83331H8.74967C6.66634 5.83331 5.83301 6.66665 5.83301 8.74998V11.25C5.83301 13.3333 6.66634 14.1666 8.74967 14.1666Z" stroke="#11403B" stroke-linecap="round" stroke-linejoin="round"/>
<path d="M6.6748 3.33329V1.66663" stroke="#11403B" stroke-linecap="round" stroke-linejoin="round"/>
<path d="M10 3.33329V1.66663" stroke="#11403B" stroke-linecap="round" stroke-linejoin="round"/>
<path d="M13.333 3.33329V1.66663" stroke="#11403B" stroke-linecap="round" stroke-linejoin="round"/>
<path d="M16.667 6.66669H18.3337" stroke="#11403B" stroke-linecap="round" stroke-linejoin="round"/>
<path d="M16.667 10H18.3337" stroke="#11403B" stroke-linecap="round" stroke-linejoin="round"/>
<path d="M16.667 13.3333H18.3337" stroke="#11403B" stroke-linecap="round" stroke-linejoin="round"/>
<path d="M13.333 16.6666V18.3333" stroke="#11403B" stroke-linecap="round" stroke-linejoin="round"/>
<path d="M10.0083 16.6666V18.3333" stroke="#11403B" stroke-linecap="round" stroke-linejoin="round"/>
<path d="M6.6748 16.6666V18.3333" stroke="#11403B" stroke-linecap="round" stroke-linejoin="round"/>
<path d="M1.66699 6.66669H3.33366" stroke="#11403B" stroke-linecap="round" stroke-linejoin="round"/>
<path d="M1.66699 10H3.33366" stroke="#11403B" stroke-linecap="round" stroke-linejoin="round"/>
<path d="M1.66699 13.3333H3.33366" stroke="#11403B" stroke-linecap="round" stroke-linejoin="round"/>
</svg>
