<svg width="578" height="202" viewBox="0 0 578 202" fill="none" xmlns="http://www.w3.org/2000/svg">
  <path
    d="M167.82 0H22.2C9.93928 0 0 9.93928 0 22.2V179.26C0 191.521 9.93928 201.46 22.2 201.46H167.82C180.081 201.46 190.02 191.521 190.02 179.26V22.2C190.02 9.93928 180.081 0 167.82 0Z"
    fill="white" />
  <path
    d="M130.86 150.14V103.81C130.86 96.98 127.82 92.11 119.92 92.11C113.09 92.11 107.47 96.67 104.73 100.62V150.13H85.29V103.8C85.29 96.97 82.25 92.1 74.35 92.1C67.67 92.1 62.05 96.66 59.16 100.76V150.12H39.87V76.76H59.16V86.33C62.2 81.92 71.92 74.94 83.16 74.94C94.4 74.94 100.78 79.95 103.51 88.31C107.76 81.63 117.48 74.94 128.72 74.94C142.24 74.94 150.29 82.08 150.29 97.12V150.13H130.85L130.86 150.14Z"
    fill="#11403B" />
  <path
    d="M144.23 51.33H45.79C42.1339 51.33 39.17 54.2939 39.17 57.95C39.17 61.6061 42.1339 64.57 45.79 64.57H144.23C147.886 64.57 150.85 61.6061 150.85 57.95C150.85 54.2939 147.886 51.33 144.23 51.33Z"
    fill="#11403B" />
  <path
    d="M311.07 130.88V56.49L281.93 130.88H272.32L243.18 56.49V130.88H221.17V27.5H252.01L277.12 91.97L302.23 27.5H333.23V130.87H311.07V130.88Z"
    fill="white" />
  <path
    d="M387.16 54.16C409.48 54.16 424.67 70.9 424.67 95.39V99.73H369.03C370.27 109.18 377.86 117.09 390.57 117.09C397.54 117.09 405.76 114.3 410.56 109.65L419.24 122.36C411.65 129.33 400.02 132.74 388.4 132.74C365.62 132.74 348.41 117.4 348.41 93.37C348.41 71.67 364.37 54.16 387.16 54.16ZM368.72 86.4H405.61C405.15 79.27 400.19 69.82 387.17 69.82C374.93 69.82 369.66 78.96 368.73 86.4H368.72Z"
    fill="white" />
  <path
    d="M440.94 107.32C446.36 112.43 457.52 117.55 466.82 117.55C475.34 117.55 479.37 114.6 479.37 109.96C479.37 104.69 472.86 102.83 464.34 101.13C451.48 98.65 434.89 95.55 434.89 77.73C434.89 65.18 445.89 54.17 465.58 54.17C478.29 54.17 488.36 58.51 495.65 64.4L487.9 77.88C483.41 73.08 474.88 69.2 465.74 69.2C458.61 69.2 453.96 71.83 453.96 76.17C453.96 80.82 459.85 82.52 468.22 84.23C481.08 86.71 498.29 90.12 498.29 108.72C498.29 122.51 486.67 132.74 465.9 132.74C452.88 132.74 440.33 128.4 432.42 121.12L440.94 107.33V107.32Z"
    fill="white" />
  <path
    d="M557.79 130.88V123.13C552.68 129.17 543.84 132.74 534.08 132.74C522.15 132.74 508.04 124.68 508.04 107.94C508.04 91.2 522.14 84.07 534.08 84.07C544 84.07 552.83 87.17 557.79 93.21V82.83C557.79 75.24 551.28 70.28 541.36 70.28C533.3 70.28 525.86 73.22 519.51 79.11L512.07 65.94C521.21 57.88 532.99 54.16 544.77 54.16C561.82 54.16 577.47 60.98 577.47 82.52V130.87H557.79V130.88ZM557.79 103.6C554.54 99.26 548.34 97.09 541.98 97.09C534.23 97.09 527.88 101.27 527.88 108.4C527.88 115.53 534.23 119.4 541.98 119.4C548.33 119.4 554.53 117.23 557.79 112.89V103.59V103.6Z"
    fill="white" />
  <path
    d="M223.27 169.09C224.77 170.76 227.21 172.32 230.41 172.32C234.46 172.32 235.75 170.14 235.75 168.41C235.75 165.69 233 164.94 230 164.13C226.36 163.18 222.32 162.16 222.32 157.7C222.32 153.96 225.65 151.41 230.11 151.41C233.58 151.41 236.26 152.57 238.17 154.57L236.47 156.64C234.77 154.77 232.39 153.92 229.91 153.92C227.19 153.92 225.25 155.38 225.25 157.52C225.25 159.8 227.87 160.48 230.76 161.26C234.47 162.25 238.68 163.4 238.68 168.16C238.68 171.46 236.44 174.82 230.32 174.82C226.38 174.82 223.49 173.32 221.62 171.22L223.29 169.08L223.27 169.09Z"
    fill="white" />
  <path
    d="M241.97 163.11C241.97 156.14 247.1 151.38 253.53 151.38C257.64 151.38 260.43 153.32 262.23 155.87L259.85 157.2C258.56 155.3 256.21 153.9 253.53 153.9C248.67 153.9 244.9 157.71 244.9 163.11C244.9 168.51 248.67 172.32 253.53 172.32C256.22 172.32 258.56 170.96 259.85 169.02L262.26 170.35C260.36 172.93 257.64 174.84 253.52 174.84C247.09 174.84 241.96 170.08 241.96 163.11H241.97Z"
    fill="white" />
  <path
    d="M281.96 174.43V164.03H268.7V174.43H265.88V151.75H268.7V161.51H281.96V151.75H284.78V174.43H281.96Z"
    fill="white" />
  <path
    d="M300.42 151.38C307.12 151.38 311.67 156.41 311.67 163.11C311.67 169.81 307.11 174.84 300.42 174.84C293.73 174.84 289.17 169.81 289.17 163.11C289.17 156.41 293.69 151.38 300.42 151.38ZM300.42 153.9C295.32 153.9 292.09 157.81 292.09 163.11C292.09 168.41 295.32 172.32 300.42 172.32C305.52 172.32 308.75 168.38 308.75 163.11C308.75 157.84 305.49 153.9 300.42 153.9Z"
    fill="white" />
  <path
    d="M326.43 151.38C333.13 151.38 337.68 156.41 337.68 163.11C337.68 169.81 333.12 174.84 326.43 174.84C319.74 174.84 315.18 169.81 315.18 163.11C315.18 156.41 319.7 151.38 326.43 151.38ZM326.43 153.9C321.33 153.9 318.1 157.81 318.1 163.11C318.1 168.41 321.33 172.32 326.43 172.32C331.53 172.32 334.76 168.38 334.76 163.11C334.76 157.84 331.5 153.9 326.43 153.9Z"
    fill="white" />
  <path d="M342.1 174.43V151.75H344.92V171.91H355.46V174.43H342.1Z" fill="white" />
  <path
    d="M378.55 151.38C385.25 151.38 389.8 156.41 389.8 163.11C389.8 169.81 385.24 174.84 378.55 174.84C371.86 174.84 367.3 169.81 367.3 163.11C367.3 156.41 371.82 151.38 378.55 151.38ZM378.55 153.9C373.45 153.9 370.22 157.81 370.22 163.11C370.22 168.41 373.45 172.32 378.55 172.32C383.65 172.32 386.88 168.38 386.88 163.11C386.88 157.84 383.62 153.9 378.55 153.9Z"
    fill="white" />
  <path
    d="M394.22 174.43V151.75H409.08V154.27H397.05V161.58H408.85V164.1H397.05V174.43H394.23H394.22Z"
    fill="white" />
  <path
    d="M421.7 174.43V151.75H431.8C435.74 151.75 438.16 154.13 438.16 157.53C438.16 160.39 436.26 162.29 434.18 162.73C436.59 163.1 438.6 165.59 438.6 168.31C438.6 171.95 436.19 174.43 432.04 174.43H421.71H421.7ZM424.52 161.58H431.32C433.87 161.58 435.23 160.02 435.23 157.94C435.23 155.86 433.87 154.27 431.32 154.27H424.52V161.58ZM424.52 171.91H431.46C434.11 171.91 435.68 170.41 435.68 168C435.68 165.93 434.25 164.09 431.46 164.09H424.52V171.91Z"
    fill="white" />
  <path
    d="M443.08 151.76H445.9V165.56C445.9 169.71 448.14 172.33 452.33 172.33C456.52 172.33 458.76 169.71 458.76 165.56V151.76H461.58V165.6C461.58 171.24 458.49 174.85 452.33 174.85C446.17 174.85 443.08 171.21 443.08 165.64V151.77V151.76Z"
    fill="white" />
  <path
    d="M467.19 169.09C468.69 170.76 471.13 172.32 474.33 172.32C478.38 172.32 479.67 170.14 479.67 168.41C479.67 165.69 476.92 164.94 473.92 164.13C470.28 163.18 466.24 162.16 466.24 157.7C466.24 153.96 469.57 151.41 474.03 151.41C477.5 151.41 480.18 152.57 482.09 154.57L480.39 156.64C478.69 154.77 476.31 153.92 473.83 153.92C471.11 153.92 469.17 155.38 469.17 157.52C469.17 159.8 471.79 160.48 474.68 161.26C478.39 162.25 482.6 163.4 482.6 168.16C482.6 171.46 480.36 174.82 474.24 174.82C470.3 174.82 467.41 173.32 465.54 171.22L467.21 169.08L467.19 169.09Z"
    fill="white" />
  <path d="M486.81 174.43V151.75H489.63V174.43H486.81Z" fill="white" />
  <path
    d="M510.98 174.43L497.76 156.14V174.43H494.94V151.75H497.83L510.88 169.67V151.75H513.7V174.43H510.98Z"
    fill="white" />
  <path
    d="M519 174.43V151.75H533.86V154.27H521.83V161.58H533.63V164.1H521.83V171.92H533.86V174.44H519V174.43Z"
    fill="white" />
  <path
    d="M538.65 169.09C540.15 170.76 542.59 172.32 545.79 172.32C549.84 172.32 551.13 170.14 551.13 168.41C551.13 165.69 548.38 164.94 545.38 164.13C541.74 163.18 537.7 162.16 537.7 157.7C537.7 153.96 541.03 151.41 545.49 151.41C548.96 151.41 551.64 152.57 553.55 154.57L551.85 156.64C550.15 154.77 547.77 153.92 545.29 153.92C542.57 153.92 540.63 155.38 540.63 157.52C540.63 159.8 543.25 160.48 546.14 161.26C549.85 162.25 554.06 163.4 554.06 168.16C554.06 171.46 551.82 174.82 545.7 174.82C541.76 174.82 538.87 173.32 537 171.22L538.67 169.08L538.65 169.09Z"
    fill="white" />
  <path
    d="M558.58 169.09C560.08 170.76 562.52 172.32 565.72 172.32C569.77 172.32 571.06 170.14 571.06 168.41C571.06 165.69 568.31 164.94 565.31 164.13C561.67 163.18 557.63 162.16 557.63 157.7C557.63 153.96 560.96 151.41 565.42 151.41C568.89 151.41 571.57 152.57 573.48 154.57L571.78 156.64C570.08 154.77 567.7 153.92 565.22 153.92C562.5 153.92 560.56 155.38 560.56 157.52C560.56 159.8 563.18 160.48 566.07 161.26C569.78 162.25 573.99 163.4 573.99 168.16C573.99 171.46 571.75 174.82 565.63 174.82C561.69 174.82 558.8 173.32 556.93 171.22L558.6 169.08L558.58 169.09Z"
    fill="white" />
</svg>
  