<?xml version="1.0" standalone="no"?>
<!DOCTYPE svg PUBLIC "-//W3C//DTD SVG 20010904//EN"
 "http://www.w3.org/TR/2001/REC-SVG-20010904/DTD/svg10.dtd">
<svg version="1.0" xmlns="http://www.w3.org/2000/svg"
 width="143.000000pt" height="200.000000pt" viewBox="0 0 143.000000 200.000000"
 preserveAspectRatio="xMidYMid meet">

<g transform="translate(0.000000,200.000000) scale(0.100000,-0.100000)"
fill="#000000" stroke="none">
<path d="M826 1811 c-23 -26 -37 -80 -30 -118 8 -41 74 -103 109 -103 23 0 25
-4 24 -42 -1 -90 -47 -156 -128 -185 -28 -9 -52 -24 -53 -33 -8 -36 59 -127
113 -155 24 -13 25 -18 21 -67 l-4 -53 85 3 c95 4 105 10 113 68 2 21 11 45
19 54 8 9 12 20 9 23 -4 4 -2 13 5 20 6 8 9 21 6 30 -4 9 6 24 25 39 l31 25
-35 65 c-32 58 -36 73 -36 139 0 124 -28 190 -104 245 -43 31 -111 63 -137 63
-9 1 -23 -7 -33 -18z"/>
<path d="M840 1025 c0 -8 2 -15 4 -15 2 0 6 7 10 15 3 8 1 15 -4 15 -6 0 -10
-7 -10 -15z"/>
<path d="M811 1004 c0 -11 3 -14 6 -6 3 7 2 16 -1 19 -3 4 -6 -2 -5 -13z"/>
<path d="M472 748 c2 -15 10 -23 23 -23 13 0 21 8 23 23 3 18 -1 22 -23 22
-22 0 -26 -4 -23 -22z"/>
<path d="M804 759 c-9 -16 21 -43 40 -36 9 4 16 16 16 27 0 15 -7 20 -24 20
-14 0 -28 -5 -32 -11z"/>
<path d="M1272 648 c3 -109 4 -113 26 -116 22 -3 22 -2 22 112 l0 116 -25 0
-26 0 3 -112z"/>
<path d="M205 738 c-3 -8 -4 -57 -3 -109 l3 -94 57 -3 c34 -2 71 3 92 12 73
30 86 133 23 180 -36 26 -164 37 -172 14z m140 -53 c32 -31 32 -59 0 -91 -19
-19 -34 -24 -58 -22 l-32 3 -3 68 -3 67 36 0 c25 0 44 -8 60 -25z"/>
<path d="M911 698 c-11 -24 -11 -33 -3 -36 7 -2 12 -23 12 -48 0 -54 27 -87
68 -82 35 4 42 35 10 40 -19 2 -23 10 -26 46 -3 37 -1 42 17 42 27 0 27 26 1
33 -11 3 -20 12 -20 21 0 31 -44 19 -59 -16z"/>
<path d="M470 615 c0 -84 0 -85 25 -85 25 0 25 1 25 85 0 84 0 85 -25 85 -25
0 -25 -1 -25 -85z"/>
<path d="M595 679 c-36 -29 -35 -89 1 -118 29 -23 55 -26 85 -11 15 8 19 7 19
-3 0 -25 -27 -39 -71 -35 -49 4 -65 -17 -24 -32 48 -18 85 -12 116 19 27 28
29 34 29 113 l0 85 -65 1 c-50 0 -70 -4 -90 -19z m99 -41 c24 -39 -35 -76 -68
-43 -9 9 -16 20 -16 25 0 17 33 41 53 38 11 -2 25 -11 31 -20z"/>
<path d="M810 615 c0 -84 1 -86 23 -83 21 3 22 8 22 83 0 75 -1 80 -22 83 -22
3 -23 1 -23 -83z"/>
<path d="M1083 693 c-7 -2 -13 -13 -13 -22 0 -14 8 -18 41 -17 25 1 44 -4 46
-11 3 -9 -6 -13 -27 -13 -47 0 -70 -16 -70 -50 0 -37 20 -48 93 -47 l57 0 0
63 c0 78 -20 104 -77 103 -21 0 -44 -3 -50 -6z m77 -107 c0 -17 -24 -28 -45
-20 -29 12 -14 34 22 34 13 0 23 -6 23 -14z"/>
<path d="M420 362 c0 -18 5 -32 10 -32 6 0 8 11 4 28 -10 39 -14 40 -14 4z"/>
<path d="M492 360 c0 -19 2 -29 5 -22 4 10 8 10 19 1 11 -9 14 -6 13 17 0 16
-3 23 -6 17 -7 -18 -21 -16 -26 5 -3 9 -5 1 -5 -18z"/>
<path d="M640 361 c0 -17 5 -31 10 -31 6 0 10 11 10 24 0 14 -4 28 -10 31 -6
4 -10 -7 -10 -24z"/>
<path d="M710 362 c0 -18 4 -32 9 -32 4 0 7 12 5 26 -4 38 -14 42 -14 6z"/>
<path d="M991 363 c-1 -18 4 -33 9 -33 12 0 12 17 0 45 -7 17 -9 15 -9 -12z"/>
<path d="M451 364 c0 -11 3 -14 6 -6 3 7 2 16 -1 19 -3 4 -6 -2 -5 -13z"/>
<path d="M602 360 c0 -14 2 -19 5 -12 2 6 2 18 0 25 -3 6 -5 1 -5 -13z"/>
<path d="M780 373 c1 -14 30 -48 30 -34 0 7 -7 19 -15 27 -8 9 -15 12 -15 7z"/>
<path d="M840 372 c0 -4 9 -15 20 -25 23 -19 28 -3 6 19 -16 16 -26 18 -26 6z"/>
<path d="M911 358 c-1 -21 4 -28 17 -28 11 0 13 3 6 8 -7 4 -14 16 -17 27 -4
15 -5 14 -6 -7z"/>
<path d="M947 360 c3 -11 7 -20 9 -20 2 0 4 9 4 20 0 11 -4 20 -9 20 -5 0 -7
-9 -4 -20z"/>
<path d="M1020 355 c0 -14 4 -25 9 -25 4 0 6 11 3 25 -2 14 -6 25 -8 25 -2 0
-4 -11 -4 -25z"/>
<path d="M1060 372 c0 -4 9 -15 20 -25 14 -11 20 -13 20 -4 0 7 -9 18 -20 25
-11 7 -20 9 -20 4z"/>
<path d="M563 356 c1 -11 9 -21 17 -23 10 -3 11 -2 4 4 -6 4 -14 15 -17 23 -5
11 -6 9 -4 -4z"/>
</g>
</svg>
